<svg width="1439" height="700" viewBox="0 0 1439 700" fill="none" xmlns="http://www.w3.org/2000/svg">
<rect width="1440" height="700" fill="#FECB01"/>
<path d="M1295.64 129.479C1381.21 109.087 1427.53 163.249 1440 192.879V699.423C1311.39 699.858 1024.39 700.468 905.229 699.423C786.071 686.35 777.278 609.879 787.777 573.277C754.969 565.869 697.358 534.061 729.378 466.086C761.399 398.111 820.585 422.948 846.175 443.863C879.245 349.221 968.877 376.542 1009.56 402.033C1020.06 353.927 1066.86 362.381 1088.95 372.62C1045.65 322.946 1096.17 226.867 1201.16 276.54C1194.6 252.357 1188.69 154.97 1295.64 129.479Z" fill="#FFDA49"/>
<path d="M348.941 77.8161C361.354 25.7651 318.703 7.58411 300.667 -2.20756e-06L2.019 -1.52619e-05C1.75377 78.2361 1.38242 242.83 2.01899 315.319C-9.33252 386.769 28.6675 422 78.8033 386.769C72.1675 420.5 115.167 438 129.167 406.5C129.167 406.5 183.039 399.5 157.577 351.244C215.185 331.126 198.555 276.6 183.039 251.852C212.32 245.465 207.175 216.991 200.942 203.553C231.178 229.898 289.662 199.162 259.425 135.296C274.146 139.287 333.425 142.88 348.941 77.8161Z" fill="#FFDA49"/>
<path d="M79.6594 308.577C33.4315 319.607 8.40314 290.312 1.66748 274.286L1.66751 0.312313C71.1512 0.0766322 226.213 -0.25331 290.592 0.312339C354.971 7.38263 359.721 48.7439 354.049 68.5407C371.775 72.5472 402.901 89.7516 385.601 126.517C368.301 163.283 336.324 149.849 322.498 138.537C304.631 189.726 256.205 174.949 234.225 161.162C228.553 187.18 203.265 182.608 191.33 177.07C214.727 203.937 187.43 255.903 130.709 229.036C134.254 242.116 137.444 294.79 79.6594 308.577Z" fill="#FFE29C"/>
<path d="M1390.31 196.458C1419.76 203.48 1435.71 184.829 1440 174.626L1440 0.198829C1395.73 0.0487932 1296.93 -0.161266 1255.91 0.198845L1207 0.198849C1181.4 0.198852 1172.67 20.3996 1171.5 30.5C1164.7 54.7409 1189 64.9337 1202 67C1202 89.4 1224.38 90.4668 1235.58 88.2001C1246.96 120.79 1277.82 111.382 1291.82 102.604C1295.44 119.169 1311.55 116.259 1319.15 112.732C1304.24 129.838 1321.64 162.922 1357.78 145.817C1355.52 154.145 1353.49 187.68 1390.31 196.458Z" fill="#FFE29C"/>
<path d="M216.641 87.6881C216.641 122.56 186.181 157.051 148.362 192.396C143.978 192.396 149.549 192.396 136.075 192.396C135.157 192.396 136.369 192.396 123.058 192.396C96.7077 165.588 60 119.897 60 87.6881C60 46.9135 94.7387 22 135.513 22C176.288 22 216.641 46.9135 216.641 87.6881Z" fill="#F48FB1"/>
<path d="M137.759 22.2808C164.708 25.9301 214.957 47.5454 191.657 113.514C176.927 155.22 152.45 186.969 145.619 192.677" stroke="#FEDCCC" stroke-width="0.561437"/>
<path d="M137.198 22.2808C110.249 25.9301 60.1266 47.5454 83.4262 113.514C98.1564 155.22 122.633 186.969 129.464 192.677" stroke="#FEDCCC" stroke-width="0.561437"/>
<path d="M137.478 22.2808C194.464 46.7033 175.488 128.505 137.759 194.081" stroke="#FEDCCC" stroke-width="0.561437"/>
<path d="M137.478 22.2808C80.4924 46.7033 99.5956 128.505 137.324 194.081" stroke="#FEDCCC" stroke-width="0.561437"/>
<path d="M137.478 22L137.478 192.396" stroke="#FEDCCC" stroke-width="0.561437"/>
<rect x="123.46" y="192.297" width="25.7364" height="9.77981" fill="#FF693D"/>
<path d="M123.559 211.607H149.102V214.224C149.102 218.298 146.637 221.968 142.865 223.509C138.677 225.219 133.985 225.219 129.796 223.509C126.024 221.968 123.559 218.298 123.559 214.224V211.607Z" fill="#FF693D"/>
<rect x="123.559" y="201.894" width="2.15853" height="9.7134" fill="#FF693D"/>
<rect x="129.315" y="201.894" width="2.15853" height="9.7134" fill="#FF693D"/>
<rect x="135.431" y="201.894" width="1.79878" height="9.7134" fill="#FF693D"/>
<rect x="141.187" y="201.894" width="2.15853" height="9.7134" fill="#FF693D"/>
<rect x="146.943" y="201.894" width="2.15853" height="9.7134" fill="#FF693D"/>
<path d="M1329.53 263.428C1395.01 247.823 1430.46 289.269 1440 311.942V699.558C1341.58 699.892 1121.94 700.358 1030.75 699.558C939.562 689.555 932.834 631.038 940.868 603.029C915.761 597.361 871.672 573.02 896.177 521.005C920.682 468.989 965.975 487.995 985.559 504C1010.87 431.578 1079.46 452.484 1110.59 471.99C1118.63 435.179 1154.45 441.648 1171.35 449.483C1138.21 411.472 1176.88 337.95 1257.22 375.961C1252.2 357.456 1247.68 282.934 1329.53 263.428Z" fill="#FFE29C"/>
<path d="M460.56 36.4134L468.036 44.3431L477.888 39.6836L472.656 49.244L480.132 57.1738L469.423 55.1527L464.191 64.713L462.804 53.9035L452.095 51.8824L461.947 47.2229L460.56 36.4134Z" fill="white"/>
<path d="M466.505 258.112L469.47 265.486L477.398 264.945L471.302 270.043L474.267 277.416L467.534 273.194L461.438 278.292L463.373 270.584L456.641 266.362L464.569 265.82L466.505 258.112Z" fill="white"/>
<path d="M466.505 633.745L469.47 641.118L477.398 640.577L471.302 645.675L474.267 653.049L467.534 648.826L461.438 653.925L463.373 646.217L456.641 641.994L464.569 641.453L466.505 633.745Z" fill="white"/>
<path d="M78.9129 600.745L81.8778 608.118L89.8064 607.577L83.7101 612.675L86.675 620.049L79.9424 615.826L73.8461 620.924L75.7814 613.217L69.0489 608.994L76.9776 608.453L78.9129 600.745Z" fill="white"/>
<path d="M1171.25 128.104L1178.66 136.579L1189.02 132.143L1183.25 141.816L1190.66 150.29L1179.68 147.794L1173.92 157.466L1172.9 146.251L1161.92 143.755L1172.27 139.32L1171.25 128.104Z" fill="white"/>
<path d="M1027.16 52.1948L1028.65 61.2854L1037.76 62.6702L1029.58 66.9037L1031.08 75.9943L1024.52 69.5202L1016.34 73.7537L1020.47 65.519L1013.92 59.0448L1023.02 60.4296L1027.16 52.1948Z" fill="white"/>
</svg>
