<svg width="1440" height="840" viewBox="0 0 1440 840" fill="none" xmlns="http://www.w3.org/2000/svg">
<rect x="-1" width="1440" height="833" fill="#A3C2FF"/>
<path d="M1044.36 616.672C1202.82 515.433 1374.14 501.419 1440 507.067V838H3V616.672C78.0261 580.137 192.066 507.067 367.627 531.953C534.694 555.636 773.768 754.87 1044.36 616.672Z" fill="#565DFF"/>
<path d="M101.754 470L124 508H78L101.754 470Z" fill="#F0F0F0"/>
<path d="M52 506H163L139.891 538H72.8362L52 506Z" fill="#F8F8F8"/>
<path d="M398.5 628.5C240.1 532.9 68.8333 519.667 3 525V837.5H1439.5V628.5C1364.5 594 1250.5 525 1075 548.5C907.991 570.863 669 759 398.5 628.5Z" fill="#719CF0"/>
<path d="M1284.25 652L1262 690H1308L1284.25 652Z" fill="#FFE29C"/>
<path d="M1334 688H1223L1246.11 720H1313.16L1334 688Z" fill="#FFF0CB"/>
<path d="M1044.36 789.122C1202.82 706.682 1374.14 695.27 1440 699.869V840H3V789.122C78.0261 759.371 192.066 699.869 367.627 720.134C534.694 739.419 773.768 901.658 1044.36 789.122Z" fill="#A3C2FF"/>
</svg>
