<svg width="1440" height="851" viewBox="0 0 1440 851" fill="none" xmlns="http://www.w3.org/2000/svg">
<g clip-path="url(#clip0_1361_10421)">
<rect width="1440" height="851" fill="#68F9C5"/>
<mask id="mask0_1361_10421" style="mask-type:alpha" maskUnits="userSpaceOnUse" x="0" y="311" width="213" height="222">
<rect y="311.162" width="213" height="221.838" fill="#68F9C5"/>
</mask>
<g mask="url(#mask0_1361_10421)">
<path d="M25.4084 408.173V382.966L41.5046 394.203L25.4084 408.173Z" fill="#FECB01"/>
<path d="M130.489 393.899C130.489 393.899 110.502 421.84 85.8453 421.84C61.189 421.84 41.2012 393.899 41.2012 393.899C41.2012 393.899 61.189 365.958 85.8453 365.958C110.502 365.958 130.489 393.899 130.489 393.899Z" fill="#C1A1FF"/>
<circle cx="111.053" cy="386.61" r="4.25182" fill="#342121"/>
<path d="M79.4501 461.621C79.4501 461.621 59.4623 489.561 34.806 489.561C10.1497 489.561 -9.83813 461.621 -9.83813 461.621C-9.83813 461.621 10.1497 433.68 34.806 433.68C59.4623 433.68 79.4501 461.621 79.4501 461.621Z" fill="#FECB01"/>
<circle cx="60.0133" cy="454.332" r="4.25182" fill="#342121"/>
</g>
<path d="M208.349 703.02C95.9003 677.909 22.5961 737.4 0 770.284V851H1440V793.233C1370.72 719.638 1281.5 781.626 1124.49 727.024C967.477 672.422 961.994 703.02 672.399 760.788C382.804 818.555 348.91 734.41 208.349 703.02Z" fill="#0A9663"/>
<ellipse cx="1043" cy="811.5" rx="11" ry="11.5" fill="#FC9577"/>
<circle cx="849" cy="755" r="4" fill="#FC9577"/>
<circle cx="1170" cy="793" r="7" fill="#FC9577"/>
<ellipse cx="762.5" cy="806" rx="5.5" ry="6" fill="#FC9577"/>
<ellipse cx="399.5" cy="806" rx="5.5" ry="6" fill="#FC9577"/>
<path d="M1208.59 701.761C1200.13 720.516 1224.6 745.401 1234.27 759L1223.15 756.938C1214.54 755.341 1205.66 756.053 1197.41 759C1183.81 745.908 1162.3 729.266 1176.86 688.365C1186.83 660.354 1221.27 647.262 1211.01 624.732C1202.54 606.16 1191.06 567.798 1229.44 527C1218.86 549.226 1224.95 582.841 1240.01 610.423C1261.47 649.698 1219.16 678.318 1208.59 701.761Z" fill="#0A9663"/>
<path d="M57.5885 731.761C49.1278 750.516 73.6029 775.401 83.2723 789L72.1481 786.938C63.5364 785.341 54.6554 786.053 46.4077 789C32.8102 775.908 11.299 759.266 25.8603 718.365C35.8324 690.354 70.2691 677.262 60.0053 654.732C51.5446 636.16 40.0622 597.798 78.4376 557C67.8617 579.226 73.9468 612.841 89.0135 640.423C110.468 679.698 68.1644 708.318 57.5885 731.761Z" fill="#0A9663"/>
<path d="M1344.36 153.03V135.696L1355.43 143.423L1344.36 153.03Z" fill="#FECB01"/>
<path d="M1416.62 143.214C1416.62 143.214 1402.88 162.429 1385.92 162.429C1368.97 162.429 1355.22 143.214 1355.22 143.214C1355.22 143.214 1368.97 124 1385.92 124C1402.88 124 1416.62 143.214 1416.62 143.214Z" fill="#C1A1FF"/>
<circle cx="1403.26" cy="138.202" r="2.92392" fill="#342121"/>
<path d="M1309.26 199.602V182.267L1320.33 189.994L1309.26 199.602Z" fill="#C1A1FF"/>
<path d="M1381.52 189.786C1381.52 189.786 1367.78 209 1350.82 209C1333.87 209 1320.12 189.786 1320.12 189.786C1320.12 189.786 1333.87 170.571 1350.82 170.571C1367.78 170.571 1381.52 189.786 1381.52 189.786Z" fill="#FECB01"/>
<circle cx="1368.16" cy="184.773" r="2.92392" fill="#342121"/>
<path d="M1290.43 777.297C1278.77 803.085 1312.51 837.301 1325.83 856L1320.33 854.828C1306.93 851.976 1293.08 852.024 1279.7 854.97L1275.02 856C1256.28 837.999 1226.63 815.115 1246.7 758.877C1260.44 720.362 1307.91 702.361 1293.76 671.382C1282.1 645.845 1266.27 593.097 1319.17 537C1304.59 567.56 1312.98 613.781 1333.75 651.706C1363.32 705.71 1305.01 745.062 1290.43 777.297Z" fill="#11D18D"/>
<path d="M1392.66 822.383C1385.57 837.985 1406.07 858.687 1414.17 870H1383.29C1371.9 859.109 1353.87 845.264 1366.07 811.239C1374.43 787.937 1403.28 777.046 1394.68 758.303C1387.59 742.853 1377.97 710.94 1410.12 677C1401.26 695.49 1406.36 723.454 1418.98 746.399C1436.96 779.072 1401.52 802.881 1392.66 822.383Z" fill="#11D18D"/>
<path d="M1349.25 819.213C1344.1 830.611 1359.62 861.235 1365.5 869.5L1364.19 868.939C1358.13 866.34 1351.6 865 1345 865C1336.73 857.043 1321.1 835.929 1329.96 811.071C1336.02 794.047 1356.96 786.091 1350.72 772.398C1345.57 761.11 1338.59 737.795 1361.93 713C1355.5 726.508 1359.2 746.938 1368.36 763.701C1381.41 787.571 1355.68 804.965 1349.25 819.213Z" fill="#11D18D"/>
<path d="M129.433 787.297C117.771 813.085 151.507 847.301 164.835 866L159.332 864.828C145.933 861.976 132.078 862.024 118.699 864.97L114.021 866C95.2789 847.999 65.6284 825.115 85.6993 768.877C99.4447 730.362 146.911 712.361 132.764 681.382C121.102 655.845 105.275 603.097 158.171 547C143.593 577.56 151.981 623.781 172.748 661.706C202.321 715.71 144.01 755.062 129.433 787.297Z" fill="#11D18D"/>
<path d="M231.655 832.383C224.567 847.985 245.073 868.687 253.174 880H222.288C210.895 869.109 192.872 855.264 205.072 821.239C213.427 797.937 242.28 787.046 233.68 768.303C226.591 752.853 216.971 720.94 249.123 687C240.262 705.49 245.361 733.454 257.984 756.399C275.96 789.072 240.516 812.881 231.655 832.383Z" fill="#11D18D"/>
<path d="M188.25 829.213C183.105 840.611 198.62 871.235 204.5 879.5L203.192 878.939C197.127 876.34 190.598 875 184 875C175.731 867.043 160.101 845.929 168.956 821.071C175.02 804.047 195.961 796.091 189.72 782.398C184.574 771.11 177.592 747.795 200.928 723C194.497 736.508 198.197 756.938 207.36 773.701C220.406 797.571 194.681 814.965 188.25 829.213Z" fill="#11D18D"/>
<path d="M933.149 768.652C933.192 764.778 938.168 763.222 940.411 766.382L947.589 776.499C948.592 777.912 950.391 778.519 952.045 778.002L963.885 774.301C967.583 773.145 970.6 777.397 968.288 780.506L960.884 790.46C959.85 791.85 959.829 793.749 960.831 795.162L968.01 805.279C970.252 808.439 967.141 812.622 963.469 811.383L951.715 807.418C950.073 806.864 948.261 807.431 947.227 808.821L939.824 818.774C937.511 821.884 932.571 820.217 932.614 816.342L932.753 803.938C932.773 802.206 931.674 800.657 930.032 800.103L918.278 796.138C914.607 794.899 914.665 789.686 918.363 788.53L930.203 784.829C931.857 784.312 932.99 782.789 933.01 781.056L933.149 768.652Z" fill="#B6FFE4"/>
</g>
<defs>
<clipPath id="clip0_1361_10421">
<rect width="1440" height="851" fill="white"/>
</clipPath>
</defs>
</svg>
